<?xml version="1.0" encoding="UTF-8"?>
<!DOCTYPE svg PUBLIC "-//W3C//DTD SVG 1.1//EN" "http://www.w3.org/Graphics/SVG/1.1/DTD/svg11.dtd">
<svg xmlns="http://www.w3.org/2000/svg" version="1.1" width="1024px" height="1024px" style="shape-rendering:geometricPrecision; text-rendering:geometricPrecision; image-rendering:optimizeQuality; fill-rule:evenodd; clip-rule:evenodd" xmlns:xlink="http://www.w3.org/1999/xlink">
<g><path style="opacity:1" fill="#faf9f9" d="M 488.5,199.5 C 591.771,196.158 676.605,233.492 743,311.5C 762.594,337.261 778.261,365.261 790,395.5C 792.863,403.756 795.53,412.089 798,420.5C 858.389,464.604 889.222,524.271 890.5,599.5C 890.42,612.215 889.587,624.882 888,637.5C 878.938,667.618 866.605,696.285 851,723.5C 846.504,729.156 842.504,735.156 839,741.5C 811.161,773.324 776.995,795.491 736.5,808C 725.214,810.612 713.881,812.945 702.5,815C 574.5,815.667 446.5,815.667 318.5,815C 311.694,813.286 304.694,812.286 297.5,812C 273.749,806.123 251.083,797.456 229.5,786C 209.276,772.279 191.109,756.112 175,737.5C 155.488,708.806 140.488,677.806 130,644.5C 117.535,577.456 131.535,516.789 172,462.5C 185.817,446.011 201.484,431.677 219,419.5C 247.129,324.694 306.962,258.194 398.5,220C 407.775,217.766 416.775,214.766 425.5,211C 435.987,207.77 446.654,205.436 457.5,204C 465.815,203.112 474.149,202.446 482.5,202C 484.723,201.434 486.723,200.6 488.5,199.5 Z"/></g>
<g><path style="opacity:1" fill="#f3da77" d="M 583.5,357.5 C 582.761,357.369 582.094,357.536 581.5,358C 573.747,371.06 566.081,384.227 558.5,397.5C 560.045,398.452 561.712,398.785 563.5,398.5C 540.553,402.879 519.887,412.379 501.5,427C 497.694,430.806 493.86,434.64 490,438.5C 475.12,423.963 458.286,412.13 439.5,403C 429.488,398.16 419.155,393.993 408.5,390.5C 403.614,388.87 398.614,387.87 393.5,387.5C 394.779,383.698 397.112,380.531 400.5,378C 411.277,369.438 422.61,361.605 434.5,354.5C 449.384,348.276 464.718,343.276 480.5,339.5C 508.03,335.106 534.864,337.44 561,346.5C 568.931,349.55 576.431,353.217 583.5,357.5 Z"/></g>
<g><path style="opacity:1" fill="#f3da66" d="M 583.5,357.5 C 588.589,359.739 593.589,362.239 598.5,365C 602.421,369.391 607.088,372.725 612.5,375C 619.642,382.142 626.809,389.309 634,396.5C 634.914,398.664 636.081,400.664 637.5,402.5C 637,402.833 636.5,403.167 636,403.5C 627.998,400.697 619.832,398.697 611.5,397.5C 600.536,395.501 589.536,395.168 578.5,396.5C 578.167,396.5 577.833,396.5 577.5,396.5C 572.878,396.156 568.545,396.823 564.5,398.5C 564.167,398.5 563.833,398.5 563.5,398.5C 561.712,398.785 560.045,398.452 558.5,397.5C 566.081,384.227 573.747,371.06 581.5,358C 582.094,357.536 582.761,357.369 583.5,357.5 Z"/></g>
<g><path style="opacity:1" fill="#faf4da" d="M 578.5,396.5 C 589.536,395.168 600.536,395.501 611.5,397.5C 600.493,397.342 589.493,397.008 578.5,396.5 Z"/></g>
<g><path style="opacity:1" fill="#faf1cd" d="M 577.5,396.5 C 573.433,398.054 569.1,398.72 564.5,398.5C 568.545,396.823 572.878,396.156 577.5,396.5 Z"/></g>
<g><path style="opacity:1" fill="#f3da77" d="M 603.5,507.5 C 602.265,507.279 601.265,506.612 600.5,505.5C 599.328,505.919 598.328,506.585 597.5,507.5C 593.65,516.214 590.484,525.214 588,534.5C 585.431,550.682 582.097,566.682 578,582.5C 577.165,593.84 576.332,605.173 575.5,616.5C 578.385,616.194 581.052,616.527 583.5,617.5C 580.772,617.171 578.438,617.837 576.5,619.5C 572.569,620.132 569.235,621.799 566.5,624.5C 554.574,630.261 542.907,636.595 531.5,643.5C 528.552,643.777 525.719,643.444 523,642.5C 522.913,637.512 523.08,632.512 523.5,627.5C 524.743,623.214 525.743,618.881 526.5,614.5C 528.757,606.093 530.091,597.427 530.5,588.5C 531.555,585.927 531.722,583.261 531,580.5C 516.974,567.139 502.974,553.806 489,540.5C 487.926,533.741 490.76,530.741 497.5,531.5C 510.085,530.72 522.419,529.053 534.5,526.5C 539.504,526.111 544.504,525.611 549.5,525C 550.308,524.692 550.975,524.192 551.5,523.5C 558.469,507.559 565.802,491.892 573.5,476.5C 575.008,474.819 576.008,472.819 576.5,470.5C 576.611,469.883 576.944,469.383 577.5,469C 579.5,468.333 581.5,468.333 583.5,469C 587.652,473.766 590.485,479.266 592,485.5C 596.628,492.423 600.462,499.757 603.5,507.5 Z"/></g>
<g><path style="opacity:1" fill="#f8eec3" d="M 576.5,470.5 C 576.008,472.819 575.008,474.819 573.5,476.5C 573.461,473.911 574.461,471.911 576.5,470.5 Z"/></g>
<g><path style="opacity:1" fill="#f3da65" d="M 603.5,507.5 C 604.736,509.649 605.736,511.982 606.5,514.5C 607.611,517.856 609.277,520.856 611.5,523.5C 620.613,525.366 629.947,526.699 639.5,527.5C 645.589,529.236 651.922,530.236 658.5,530.5C 663.199,531.065 667.865,531.898 672.5,533C 674.396,534.808 674.896,536.975 674,539.5C 666.611,547.057 659.111,554.39 651.5,561.5C 644.89,566.441 638.89,572.108 633.5,578.5C 632.275,579.152 631.608,580.319 631.5,582C 631.514,583.385 631.848,584.551 632.5,585.5C 632.851,589.684 633.518,593.684 634.5,597.5C 635.551,606.667 636.884,615.667 638.5,624.5C 640.03,627.695 640.696,631.195 640.5,635C 642.199,643.134 639.199,645.634 631.5,642.5C 623.646,638.741 615.979,634.741 608.5,630.5C 606.434,628.801 604.1,627.468 601.5,626.5C 595.156,623.995 589.156,620.995 583.5,617.5C 581.052,616.527 578.385,616.194 575.5,616.5C 576.332,605.173 577.165,593.84 578,582.5C 582.097,566.682 585.431,550.682 588,534.5C 590.484,525.214 593.65,516.214 597.5,507.5C 598.328,506.585 599.328,505.919 600.5,505.5C 601.265,506.612 602.265,507.279 603.5,507.5 Z"/></g>
<g><path style="opacity:1" fill="#f7e7a5" d="M 606.5,514.5 C 609.444,516.716 611.111,519.716 611.5,523.5C 609.277,520.856 607.611,517.856 606.5,514.5 Z"/></g>
<g><path style="opacity:1" fill="#f3da77" d="M 366.5,554.5 C 364.229,556.612 362.896,559.279 362.5,562.5C 350.053,603.167 359.053,638 389.5,667C 395.405,670.755 401.405,674.255 407.5,677.5C 382.005,678.498 356.339,678.831 330.5,678.5C 315.036,674.205 301.036,667.038 288.5,657C 283.298,651.404 278.465,645.57 274,639.5C 269.71,631.119 266.543,622.452 264.5,613.5C 263.622,606.862 262.956,600.195 262.5,593.5C 264.089,584.986 266.422,576.652 269.5,568.5C 271.241,566.605 272.241,564.272 272.5,561.5C 279.574,547.592 289.907,536.759 303.5,529C 307.957,526.61 312.623,524.777 317.5,523.5C 320.01,523.073 322.343,522.407 324.5,521.5C 344.614,516.487 363.614,519.32 381.5,530C 381.833,530.333 382.167,530.667 382.5,531C 375.717,537.932 370.383,545.765 366.5,554.5 Z"/></g>
<g><path style="opacity:1" fill="#faedc2" d="M 324.5,521.5 C 322.343,522.407 320.01,523.073 317.5,523.5C 317.611,522.883 317.944,522.383 318.5,522C 320.473,521.505 322.473,521.338 324.5,521.5 Z"/></g>
<g><path style="opacity:1" fill="#f9f1cf" d="M 639.5,527.5 C 646.178,527.127 652.511,528.127 658.5,530.5C 651.922,530.236 645.589,529.236 639.5,527.5 Z"/></g>
<g><path style="opacity:1" fill="#faf1cb" d="M 534.5,526.5 C 522.419,529.053 510.085,530.72 497.5,531.5C 509.607,529.188 521.941,527.522 534.5,526.5 Z"/></g>
<g><path style="opacity:1" fill="#fae9b3" d="M 366.5,554.5 C 365.721,557.545 364.387,560.211 362.5,562.5C 362.896,559.279 364.229,556.612 366.5,554.5 Z"/></g>
<g><path style="opacity:1" fill="#faeab8" d="M 272.5,561.5 C 272.241,564.272 271.241,566.605 269.5,568.5C 269.759,565.728 270.759,563.395 272.5,561.5 Z"/></g>
<g><path style="opacity:1" fill="#faefd0" d="M 651.5,561.5 C 646.11,567.892 640.11,573.559 633.5,578.5C 638.89,572.108 644.89,566.441 651.5,561.5 Z"/></g>
<g><path style="opacity:1" fill="#faefc2" d="M 633.5,578.5 C 632.631,580.717 632.298,583.05 632.5,585.5C 631.848,584.551 631.514,583.385 631.5,582C 631.608,580.319 632.275,579.152 633.5,578.5 Z"/></g>
<g><path style="opacity:1" fill="#f7e6a0" d="M 530.5,588.5 C 530.091,597.427 528.757,606.093 526.5,614.5C 526.75,605.532 528.083,596.865 530.5,588.5 Z"/></g>
<g><path style="opacity:1" fill="#faefc7" d="M 262.5,593.5 C 262.956,600.195 263.622,606.862 264.5,613.5C 263.718,610.286 262.885,606.952 262,603.5C 261.192,599.973 261.359,596.64 262.5,593.5 Z"/></g>
<g><path style="opacity:1" fill="#f9f2cf" d="M 634.5,597.5 C 635.117,597.611 635.617,597.944 636,598.5C 637.091,607.148 637.924,615.815 638.5,624.5C 636.884,615.667 635.551,606.667 634.5,597.5 Z"/></g>
<g><path style="opacity:1" fill="#faf2d4" d="M 576.5,619.5 C 573.765,622.201 570.431,623.868 566.5,624.5C 569.235,621.799 572.569,620.132 576.5,619.5 Z"/></g>
<g><path style="opacity:1" fill="#f7e6a5" d="M 601.5,626.5 C 604.1,627.468 606.434,628.801 608.5,630.5C 605.454,630.275 603.121,628.942 601.5,626.5 Z"/></g>
<g><path style="opacity:1" fill="#faecba" d="M 523.5,627.5 C 523.08,632.512 522.913,637.512 523,642.5C 525.719,643.444 528.552,643.777 531.5,643.5C 528.447,646.14 525.28,646.14 522,643.5C 521.333,639.167 521.333,634.833 522,630.5C 522.232,629.263 522.732,628.263 523.5,627.5 Z"/></g>
<g><path style="opacity:1" fill="#faedc8" d="M 407.5,677.5 C 408.043,677.56 408.376,677.893 408.5,678.5C 382.336,679.829 356.336,679.829 330.5,678.5C 356.339,678.831 382.005,678.498 407.5,677.5 Z"/></g>
</svg>
