<?xml version="1.0" encoding="UTF-8"?>
<!DOCTYPE svg PUBLIC "-//W3C//DTD SVG 1.1//EN" "http://www.w3.org/Graphics/SVG/1.1/DTD/svg11.dtd">
<svg xmlns="http://www.w3.org/2000/svg" version="1.1" width="1024px" height="1024px" style="shape-rendering:geometricPrecision; text-rendering:geometricPrecision; image-rendering:optimizeQuality; fill-rule:evenodd; clip-rule:evenodd" xmlns:xlink="http://www.w3.org/1999/xlink">
<g><path style="opacity:1" fill="#f9e69b" d="M -0.5,-0.5 C 160.5,-0.5 321.5,-0.5 482.5,-0.5C 478.702,0.483418 474.702,0.816751 470.5,0.5C 470.491,2.30839 470.991,3.97506 472,5.5C 472.333,5.16667 472.667,4.83333 473,4.5C 473.829,7.67447 472.829,8.67447 470,7.5C 467.991,9.54277 465.991,11.5428 464,13.5C 464.617,15.0948 464.284,16.4281 463,17.5C 462.585,15.7091 461.585,14.3757 460,13.5C 458.149,15.3365 455.983,16.1698 453.5,16C 456.366,14.2129 456.866,12.0462 455,9.5C 453.428,13.8521 451.761,14.1854 450,10.5C 448.745,11.2106 447.579,12.044 446.5,13C 448.932,14.0875 448.598,14.5875 445.5,14.5C 445.55,12.4099 444.55,11.0766 442.5,10.5C 441.672,13.3268 440.006,15.4935 437.5,17C 438.711,18.1131 438.711,19.2798 437.5,20.5C 435.684,21.9424 433.684,22.4424 431.5,22C 431.833,21.6667 432.167,21.3333 432.5,21C 431.5,20.3333 430.5,20.3333 429.5,21C 430.258,22.3639 429.758,23.5305 428,24.5C 427.667,24.1667 427.333,23.8333 427,23.5C 426.316,24.7839 426.483,25.9505 427.5,27C 426.551,27.6172 425.718,27.4506 425,26.5C 424.097,27.7014 422.931,28.5348 421.5,29C 423.595,29.5556 423.762,30.0556 422,30.5C 420.395,29.8993 419.062,28.8993 418,27.5C 416.459,30.6238 414.625,30.9571 412.5,28.5C 409.31,30.2024 408.143,29.5357 409,26.5C 406.332,28.8905 403.999,30.8905 402,32.5C 401.549,30.0712 400.715,29.9045 399.5,32C 400.167,34 401.5,35.3333 403.5,36C 402.24,37.113 401.073,37.2797 400,36.5C 399.676,38.5689 398.842,38.9023 397.5,37.5C 396.416,38.6651 395.583,39.9984 395,41.5C 393.823,39.8243 392.323,38.4909 390.5,37.5C 389.268,38.1445 387.935,38.3112 386.5,38C 385.167,39 385.167,40 386.5,41C 388.107,40.9813 389.774,40.8146 391.5,40.5C 390.592,42.8911 390.426,45.2244 391,47.5C 390.586,47.0426 390.086,46.7093 389.5,46.5C 387.349,48.2577 385.183,49.9243 383,51.5C 381.176,50.2513 381.343,49.0847 383.5,48C 382.448,46.8808 381.281,46.3808 380,46.5C 379.749,48.433 379.249,50.2663 378.5,52C 378.833,52.3333 379.167,52.6667 379.5,53C 376.748,53.2118 374.248,54.0452 372,55.5C 371.05,54.9777 370.216,54.311 369.5,53.5C 369.563,54.6605 369.23,55.9938 368.5,57.5C 366.713,58.316 365.046,59.316 363.5,60.5C 362.148,59.4825 361.148,58.1492 360.5,56.5C 358.319,57.5371 358.319,58.8704 360.5,60.5C 360.441,62.7665 359.608,63.4332 358,62.5C 357,63.1667 356,63.8333 355,64.5C 354.389,62.2499 353.056,60.5832 351,59.5C 350.383,60.4491 350.549,61.2825 351.5,62C 347.788,63.2693 345.121,65.1026 343.5,67.5C 343.667,67.8333 343.833,68.1667 344,68.5C 345.667,67.8333 347.333,67.1667 349,66.5C 349.456,67.7441 348.956,68.5774 347.5,69C 349.301,69.3173 349.634,69.984 348.5,71C 345.521,69.9856 342.854,70.6523 340.5,73C 340.833,73.3333 341.167,73.6667 341.5,74C 339.559,74.7429 337.726,74.5762 336,73.5C 333.831,77.0103 330.664,79.177 326.5,80C 327.451,80.7175 327.617,81.5509 327,82.5C 325.795,81.9288 324.628,81.2621 323.5,80.5C 325.979,78.5539 328.646,77.0539 331.5,76C 329.215,74.0464 327.048,74.213 325,76.5C 323.049,74.8629 323.216,73.3629 325.5,72C 324.182,71.3058 323.349,70.4725 323,69.5C 321.374,71.629 319.54,73.629 317.5,75.5C 315.939,74.6527 314.439,74.9861 313,76.5C 311.701,76.0338 310.201,76.0338 308.5,76.5C 308.66,78.1992 308.494,79.8659 308,81.5C 305.955,82.7692 303.621,84.4359 301,86.5C 300.667,86.1667 300.333,85.8333 300,85.5C 299.626,86.4162 299.126,87.2496 298.5,88C 295.362,89.4029 292.362,91.0695 289.5,93C 289.957,93.414 290.291,93.914 290.5,94.5C 287.614,94.7104 284.614,94.8771 281.5,95C 283.167,95.3333 284.833,95.6667 286.5,96C 284.43,96.9476 282.93,98.4476 282,100.5C 280.251,99.701 278.918,100.368 278,102.5C 274.058,102.03 271.225,103.863 269.5,108C 270.167,108.333 270.833,108.667 271.5,109C 269.793,109.195 268.126,109.195 266.5,109C 267.312,111.582 266.479,113.749 264,115.5C 261.985,114.158 259.818,113.658 257.5,114C 258.667,114.5 259.5,115.333 260,116.5C 260.333,116.167 260.667,115.833 261,115.5C 262.983,117.997 262.15,119.164 258.5,119C 256.291,120.873 254.458,123.04 253,125.5C 252.581,124.328 251.915,123.328 251,122.5C 249.414,123.376 247.914,124.376 246.5,125.5C 245.549,124.674 244.549,124.508 243.5,125C 240.658,126.816 238.825,129.316 238,132.5C 237.282,131.549 236.449,131.383 235.5,132C 234.845,133.487 233.845,134.653 232.5,135.5C 230.556,136.116 228.39,136.116 226,135.5C 225.333,136.5 225.333,137.5 226,138.5C 226.667,139.833 227.333,139.833 228,138.5C 228.667,139.167 228.667,139.833 228,140.5C 226.065,142.102 223.899,143.269 221.5,144C 219.951,145.214 218.785,146.714 218,148.5C 217.667,147.833 217.333,147.167 217,146.5C 216.047,148.592 214.714,148.925 213,147.5C 209.903,148.289 209.736,149.456 212.5,151C 210.798,152.718 208.965,152.885 207,151.5C 206.333,153.167 206.333,154.833 207,156.5C 207.725,154.842 208.892,154.342 210.5,155C 208.259,156.739 206.592,158.906 205.5,161.5C 206.025,162.192 206.692,162.692 207.5,163C 205.137,165.18 202.47,166.847 199.5,168C 200.167,168.333 200.833,168.667 201.5,169C 199.578,170.46 198.911,172.127 199.5,174C 197.22,174.233 195.22,175.066 193.5,176.5C 194.025,177.192 194.692,177.692 195.5,178C 194.333,178.5 193.5,179.333 193,180.5C 192.549,178.071 191.715,177.904 190.5,180C 192.657,181.085 192.824,182.251 191,183.5C 189.867,181.789 188.367,181.289 186.5,182C 184.356,183.146 182.523,184.646 181,186.5C 179.779,185.728 178.779,184.728 178,183.5C 176.383,184.536 176.216,185.703 177.5,187C 176.36,188.973 175.027,190.807 173.5,192.5C 174.09,193.799 175.09,194.632 176.5,195C 173.626,195.738 170.96,196.904 168.5,198.5C 167.914,198.291 167.414,197.957 167,197.5C 165.436,199.665 165.603,201.332 167.5,202.5C 164.772,203.94 162.605,203.274 161,200.5C 159.396,201.068 158.73,202.068 159,203.5C 159.914,202.346 160.747,202.513 161.5,204C 158.523,205.463 156.857,207.463 156.5,210C 154.779,210.739 153.113,211.573 151.5,212.5C 152.416,214.784 151.416,215.951 148.5,216C 147.167,216.667 147.167,217.333 148.5,218C 147.234,218.309 146.067,218.809 145,219.5C 144.667,219.167 144.333,218.833 144,218.5C 143.1,220.398 141.934,222.064 140.5,223.5C 139.914,223.291 139.414,222.957 139,222.5C 139,223.833 139,225.167 139,226.5C 138.667,226.167 138.333,225.833 138,225.5C 136.957,228.112 135.457,230.445 133.5,232.5C 134.262,232.911 135.262,233.077 136.5,233C 135.833,234 135.167,235 134.5,236C 136.329,237.113 137.163,238.613 137,240.5C 136.019,243.655 134.685,243.988 133,241.5C 131.667,242.833 130.333,242.833 129,241.5C 128,243.5 127,245.5 126,247.5C 124.249,246.826 122.583,246.493 121,246.5C 120.581,247.672 119.915,248.672 119,249.5C 118.333,248.167 117.667,248.167 117,249.5C 114.419,252.953 112.586,256.453 111.5,260C 112.187,261.162 112.353,262.328 112,263.5C 110.493,264.505 109.327,265.838 108.5,267.5C 107.914,267.291 107.414,266.957 107,266.5C 106.266,271.061 104.766,274.894 102.5,278C 103.5,278.333 104.5,278.667 105.5,279C 103.285,281.257 100.952,282.59 98.5,283C 100.973,284.925 100.973,286.758 98.5,288.5C 97.2888,287.726 97.2888,286.893 98.5,286C 97.8333,285.833 97.1667,285.667 96.5,285.5C 94.2962,287.848 91.6295,289.681 88.5,291C 90.2826,292.067 90.7826,293.567 90,295.5C 89.3457,294.304 88.8457,294.304 88.5,295.5C 89.7366,296.281 90.7366,297.281 91.5,298.5C 90.9747,299.192 90.3081,299.692 89.5,300C 89.8333,300.333 90.1667,300.667 90.5,301C 88.1663,304.001 85.6663,306.501 83,308.5C 82.6667,308.167 82.3333,307.833 82,307.5C 80.9326,308.191 79.7659,308.691 78.5,309C 79.6492,310.744 80.9825,310.911 82.5,309.5C 83.7112,310.274 83.7112,311.107 82.5,312C 80.7289,314.113 79.2289,313.947 78,311.5C 77.0766,312.759 76.2432,314.092 75.5,315.5C 73.6254,314.164 72.2921,314.664 71.5,317C 72.8333,317 74.1667,317 75.5,317C 74.2532,318.458 74.2532,319.958 75.5,321.5C 75.1667,321.833 74.8333,322.167 74.5,322.5C 73.6551,320.238 72.3217,319.571 70.5,320.5C 69.5465,322.908 68.2132,325.075 66.5,327C 66.8333,327.333 67.1667,327.667 67.5,328C 65.4679,329.675 63.4679,331.342 61.5,333C 62.2052,334.422 62.5385,335.755 62.5,337C 57.8865,337.67 57.8865,339.337 62.5,342C 61.624,343.586 60.624,345.086 59.5,346.5C 60.6034,346.998 61.6034,347.331 62.5,347.5C 60.7045,348.141 59.2045,349.141 58,350.5C 57.6924,349.692 57.1924,349.025 56.5,348.5C 54.7749,349.015 53.1083,349.682 51.5,350.5C 52.0522,352.003 52.0522,353.669 51.5,355.5C 49.09,354.937 46.7567,354.437 44.5,354C 45.1667,355.333 46.1667,356.333 47.5,357C 45.3985,358.733 45.0652,360.733 46.5,363C 40.5638,362.569 39.8971,364.569 44.5,369C 43.3333,369.5 42.5,370.333 42,371.5C 41.3878,368.968 39.8878,368.135 37.5,369C 38.1667,369.667 38.8333,370.333 39.5,371C 37.4385,373.068 36.2718,375.568 36,378.5C 35.6667,377.5 35.3333,376.5 35,375.5C 33.6017,377.814 33.435,380.147 34.5,382.5C 33.2195,385.447 31.2195,387.781 28.5,389.5C 29.8091,392.251 31.4758,394.751 33.5,397C 32.2412,397.923 30.9079,398.757 29.5,399.5C 30.6004,403.389 29.267,404.389 25.5,402.5C 24.5,402.833 23.5,403.167 22.5,403.5C 21.3595,404.425 21.3595,405.259 22.5,406C 21.5509,406.617 20.7175,406.451 20,405.5C 19.5348,406.931 18.7014,408.097 17.5,409C 17.8333,409.333 18.1667,409.667 18.5,410C 15.3778,411.421 15.0444,413.087 17.5,415C 16.552,415.483 15.552,415.649 14.5,415.5C 16.1336,418.74 15.1336,420.906 11.5,422C 12.91,422.368 13.91,423.201 14.5,424.5C 13.3966,424.998 12.3966,425.331 11.5,425.5C 12.0354,427.271 12.8687,427.604 14,426.5C 13.8516,427.825 14.0183,428.992 14.5,430C 12.4794,430.513 10.9794,431.68 10,433.5C 7.91539,432.353 6.41539,433.02 5.5,435.5C 5.70931,436.086 6.04265,436.586 6.5,437C 4.66667,438.167 3.16667,439.667 2,441.5C 1.66667,439.833 1.33333,438.167 1,436.5C 0.801916,438.382 0.301916,440.048 -0.5,441.5C -0.5,294.167 -0.5,146.833 -0.5,-0.5 Z"/></g>
<g><path style="opacity:1" fill="#f3e189" d="M 528.5,-0.5 C 611.833,-0.5 695.167,-0.5 778.5,-0.5C 772.148,0.631131 766.815,3.7978 762.5,9C 756.635,10.0861 750.968,12.4195 745.5,16C 725.522,22.6593 705.522,29.326 685.5,36C 678.332,39.4167 671.332,43.0834 664.5,47C 661.45,47.679 658.45,48.5123 655.5,49.5C 654.914,49.2907 654.414,48.9574 654,48.5C 650.741,52.3764 646.574,54.8764 641.5,56C 639.651,57.093 637.984,58.4263 636.5,60C 630.658,62.0155 624.991,64.3489 619.5,67C 617.248,69.8871 614.248,71.2205 610.5,71C 607.833,72.3333 605.833,74.3333 604.5,77C 590.462,85.4042 576.129,93.0709 561.5,100C 559.246,102.419 556.579,104.252 553.5,105.5C 552.756,106.991 552.09,108.491 551.5,110C 549.5,110.667 547.5,111.333 545.5,112C 540.771,117.03 535.105,120.53 528.5,122.5C 527.472,124.361 525.972,125.695 524,126.5C 523.691,127.766 523.191,128.933 522.5,130C 517.506,132.991 512.506,135.991 507.5,139C 503.221,144.123 498.554,148.789 493.5,153C 491.575,152.865 489.575,152.698 487.5,152.5C 486.857,156.773 484.524,159.773 480.5,161.5C 479.585,164.467 477.585,166.3 474.5,167C 465.013,176.315 455.013,185.148 444.5,193.5C 443.914,193.291 443.414,192.957 443,192.5C 442.691,193.766 442.191,194.933 441.5,196C 441.833,196.333 442.167,196.667 442.5,197C 440.974,198.887 438.974,199.887 436.5,200C 437.205,201.557 436.539,202.723 434.5,203.5C 433.678,205.139 433.011,206.805 432.5,208.5C 429.146,208.747 426.146,209.747 423.5,211.5C 404.999,216.913 386.999,223.746 369.5,232C 363.575,236.415 357.241,240.082 350.5,243C 316.531,265.634 287.031,293.134 262,325.5C 258.8,332.341 254.967,338.674 250.5,344.5C 247.476,347.524 245.476,351.19 244.5,355.5C 233.476,374.867 225.143,395.534 219.5,417.5C 192.935,437.56 170.768,461.56 153,489.5C 148.632,498.52 144.298,507.52 140,516.5C 137.947,525.835 134.947,534.835 131,543.5C 128.234,556.82 126.4,570.153 125.5,583.5C 124.834,588.656 124.501,593.989 124.5,599.5C 124.417,609.039 125.084,618.373 126.5,627.5C 127.661,635.759 129.161,644.093 131,652.5C 132.333,653.167 133.333,654.167 134,655.5C 135.671,661.686 137.504,667.853 139.5,674C 145.343,683.189 150.009,693.022 153.5,703.5C 154.242,704.287 155.075,704.953 156,705.5C 159.016,711.531 162.016,717.531 165,723.5C 169.948,731.742 175.614,739.409 182,746.5C 194.367,759.031 207.534,770.698 221.5,781.5C 220.504,781.586 219.671,781.252 219,780.5C 218.648,787.872 219.148,795.372 220.5,803C 219.027,805.233 219.36,807.233 221.5,809C 220.833,810 220.167,811 219.5,812C 221.163,816.284 221.496,820.617 220.5,825C 222.35,826.845 222.683,828.845 221.5,831C 222.302,834.098 222.969,837.265 223.5,840.5C 223.392,841.442 223.059,842.275 222.5,843C 223.574,843.739 224.241,844.739 224.5,846C 224.407,855.196 226.24,864.363 230,873.5C 230.277,879.128 231.111,884.628 232.5,890C 231.978,890.561 231.645,891.228 231.5,892C 232.961,898.751 235.128,905.251 238,911.5C 239.26,923.428 242.26,934.761 247,945.5C 248.064,949.446 248.897,953.446 249.5,957.5C 253.06,964.074 255.227,971.074 256,978.5C 257.189,984.08 259.522,989.08 263,993.5C 264.874,1003.95 268.041,1013.95 272.5,1023.5C 181.5,1023.5 90.5,1023.5 -0.5,1023.5C -0.5,842.833 -0.5,662.167 -0.5,481.5C 0.495904,481.586 1.32924,481.252 2,480.5C 9.43841,458.073 17.9384,436.74 27.5,416.5C 27.2907,415.914 26.9574,415.414 26.5,415C 30.0757,412.021 32.2424,408.187 33,403.5C 33.3333,403.833 33.6667,404.167 34,404.5C 34.212,401.56 35.712,399.726 38.5,399C 37.8333,398.333 37.1667,397.667 36.5,397C 38.9949,394.347 40.9949,391.347 42.5,388C 42.1667,387.667 41.8333,387.333 41.5,387C 42.8333,385.667 44.1667,384.333 45.5,383C 45.1667,382.667 44.8333,382.333 44.5,382C 48.0914,374.655 52.0914,367.488 56.5,360.5C 56.2907,359.914 55.9574,359.414 55.5,359C 59.3201,357.247 61.3201,354.58 61.5,351C 63.6975,348.417 65.5309,345.584 67,342.5C 67.3333,342.833 67.6667,343.167 68,343.5C 69.5462,338.955 71.5462,334.622 74,330.5C 77.797,326.706 80.797,322.372 83,317.5C 84.6134,318.622 85.7801,318.122 86.5,316C 85.1669,314.16 85.3335,313.66 87,314.5C 87.3095,313.234 87.8095,312.067 88.5,311C 88.1667,310.667 87.8333,310.333 87.5,310C 89.286,309.215 90.786,308.049 92,306.5C 93.113,302.912 94.613,299.578 96.5,296.5C 97.8221,296.67 98.9887,296.337 100,295.5C 105.031,287.967 109.864,280.3 114.5,272.5C 117.138,269.526 119.805,266.526 122.5,263.5C 122.291,262.914 121.957,262.414 121.5,262C 123.689,259.056 126.189,257.223 129,256.5C 129.617,255.551 129.451,254.718 128.5,254C 131.949,251.518 135.116,248.685 138,245.5C 142.053,241.431 145.387,236.765 148,231.5C 149.011,230.663 150.178,230.33 151.5,230.5C 151.48,228.857 152.147,227.524 153.5,226.5C 152.371,224.471 152.871,224.137 155,225.5C 156.487,224.747 156.654,223.914 155.5,223C 156.833,222.333 158.167,221.667 159.5,221C 159.043,220.586 158.709,220.086 158.5,219.5C 164.716,214.701 170.716,209.701 176.5,204.5C 177.427,202.887 178.261,201.221 179,199.5C 183.216,195.941 187.383,192.441 191.5,189C 191.167,188.667 190.833,188.333 190.5,188C 193.71,185.96 197.043,184.127 200.5,182.5C 201.145,181.268 201.311,179.935 201,178.5C 205.198,174.963 209.365,171.463 213.5,168C 213.167,167.667 212.833,167.333 212.5,167C 213.204,165.429 214.537,163.762 216.5,162C 218.279,162.979 219.945,162.646 221.5,161C 223.673,158.661 226.006,156.494 228.5,154.5C 228.291,153.914 227.957,153.414 227.5,153C 236.919,148.482 244.919,142.315 251.5,134.5C 252.086,134.709 252.586,135.043 253,135.5C 255.624,132.543 258.79,130.377 262.5,129C 264.055,127.417 265.222,125.584 266,123.5C 266.718,124.451 267.551,124.617 268.5,124C 279.371,115.468 290.537,107.301 302,99.5C 302.333,99.8333 302.667,100.167 303,100.5C 305.285,98.0934 307.451,95.5934 309.5,93C 320.196,88.4799 330.862,82.9799 341.5,76.5C 342.965,77.6087 343.965,77.1087 344.5,75C 346.67,73.4138 349.004,72.0804 351.5,71C 350.346,70.0862 350.513,69.2529 352,68.5C 352.691,70.8912 353.691,70.8912 355,68.5C 355.333,68.8333 355.667,69.1667 356,69.5C 357.986,68.7213 359.819,67.0546 361.5,64.5C 362.086,64.7093 362.586,65.0426 363,65.5C 371.944,59.6007 381.778,54.4341 392.5,50C 393.479,47.5969 394.979,46.7636 397,47.5C 397.333,46.8333 397.667,46.1667 398,45.5C 400.724,45.7762 403.391,45.7762 406,45.5C 407.649,43.3501 409.482,41.3501 411.5,39.5C 414.531,40.67 417.197,40.0033 419.5,37.5C 420.167,37.8333 420.833,38.1667 421.5,38.5C 422.696,38.1543 422.696,37.6543 421.5,37C 425.334,36.3377 429.167,34.8377 433,32.5C 434.525,32.1119 436.192,32.1119 438,32.5C 440.732,30.1059 443.899,28.6059 447.5,28C 446.185,26.6054 446.519,25.6054 448.5,25C 452.61,24.675 456.61,23.8417 460.5,22.5C 461.442,22.6082 462.275,22.9415 463,23.5C 464.2,21.5884 465.867,20.2551 468,19.5C 468.333,20.1667 468.667,20.8333 469,21.5C 470.706,20.6921 471.539,19.3588 471.5,17.5C 474.417,16.7089 477.25,16.7089 480,17.5C 481.365,15.1402 483.365,13.4735 486,12.5C 486.333,12.8333 486.667,13.1667 487,13.5C 489.105,12.6886 491.105,11.6886 493,10.5C 493.772,10.6448 494.439,10.9781 495,11.5C 496.46,8.79019 498.46,8.12353 501,9.5C 502,8.5 503,7.5 504,6.5C 506.599,6.36709 509.266,6.36709 512,6.5C 515.373,4.34383 519.04,2.67716 523,1.5C 525.528,2.93412 527.362,2.26745 528.5,-0.5 Z"/></g>
<g><path style="opacity:1" fill="#f3da76" d="M 778.5,-0.5 C 852.833,-0.5 927.167,-0.5 1001.5,-0.5C 995.454,4.03676 989.787,9.20343 984.5,15C 983.167,15.3333 981.833,15.6667 980.5,16C 976.239,18.5867 972.239,21.5867 968.5,25C 967.552,25.4828 966.552,25.6495 965.5,25.5C 967.484,28.861 966.484,30.5277 962.5,30.5C 962.778,32.3464 962.111,33.6798 960.5,34.5C 957.7,32.0984 954.7,31.9317 951.5,34C 945.5,37 939.5,40 933.5,43C 932.257,44.1545 931.257,45.4878 930.5,47C 928.5,47.3333 926.5,47.6667 924.5,48C 914.68,52.4102 905.014,57.0769 895.5,62C 890.478,62.599 886.645,65.099 884,69.5C 881.627,68.457 879.46,68.7903 877.5,70.5C 861.305,76.6449 846.305,85.1449 832.5,96C 826.75,96.7528 823.25,99.9194 822,105.5C 818.942,110.086 814.775,112.753 809.5,113.5C 809.607,115.903 808.607,117.736 806.5,119C 803.246,120.581 800.246,122.581 797.5,125C 794.342,126.469 791.009,127.469 787.5,128C 785.162,135.339 780.162,139.339 772.5,140C 768.641,143.032 764.974,146.198 761.5,149.5C 760.761,149.369 760.094,149.536 759.5,150C 757.851,152.648 755.851,154.981 753.5,157C 756.241,159.812 755.908,161.978 752.5,163.5C 748.853,159.27 746.52,159.937 745.5,165.5C 747.665,165.116 749.332,165.783 750.5,167.5C 747.518,168.332 744.518,168.499 741.5,168C 737.136,171.368 733.136,175.034 729.5,179C 731.756,180.834 731.756,182.501 729.5,184C 727.5,184.333 725.5,184.667 723.5,185C 721.64,188.36 718.973,190.86 715.5,192.5C 714.526,194.743 714.192,197.076 714.5,199.5C 712.488,198.986 710.488,198.82 708.5,199C 705.667,203.167 702.167,206.667 698,209.5C 689.03,221.103 679.363,232.103 669,242.5C 668.53,243.577 668.697,244.577 669.5,245.5C 661.252,242.404 653.919,237.904 647.5,232C 631.051,224.572 614.384,218.072 597.5,212.5C 595.162,210.96 592.495,210.294 589.5,210.5C 580.074,207.538 570.407,205.538 560.5,204.5C 560.389,203.883 560.056,203.383 559.5,203C 555.848,202.501 552.182,202.335 548.5,202.5C 544.03,201.514 539.363,201.181 534.5,201.5C 533.391,200.71 532.058,200.21 530.5,200C 509.561,198.776 488.894,199.609 468.5,202.5C 458.845,204.346 449.179,206.013 439.5,207.5C 437.139,207.674 434.806,208.007 432.5,208.5C 433.011,206.805 433.678,205.139 434.5,203.5C 436.539,202.723 437.205,201.557 436.5,200C 438.974,199.887 440.974,198.887 442.5,197C 442.167,196.667 441.833,196.333 441.5,196C 442.191,194.933 442.691,193.766 443,192.5C 443.414,192.957 443.914,193.291 444.5,193.5C 455.013,185.148 465.013,176.315 474.5,167C 477.585,166.3 479.585,164.467 480.5,161.5C 484.524,159.773 486.857,156.773 487.5,152.5C 489.575,152.698 491.575,152.865 493.5,153C 498.554,148.789 503.221,144.123 507.5,139C 512.506,135.991 517.506,132.991 522.5,130C 523.191,128.933 523.691,127.766 524,126.5C 525.972,125.695 527.472,124.361 528.5,122.5C 535.105,120.53 540.771,117.03 545.5,112C 547.5,111.333 549.5,110.667 551.5,110C 552.09,108.491 552.756,106.991 553.5,105.5C 556.579,104.252 559.246,102.419 561.5,100C 576.129,93.0709 590.462,85.4042 604.5,77C 605.833,74.3333 607.833,72.3333 610.5,71C 614.248,71.2205 617.248,69.8871 619.5,67C 624.991,64.3489 630.658,62.0155 636.5,60C 637.984,58.4263 639.651,57.093 641.5,56C 646.574,54.8764 650.741,52.3764 654,48.5C 654.414,48.9574 654.914,49.2907 655.5,49.5C 658.45,48.5123 661.45,47.679 664.5,47C 671.332,43.0834 678.332,39.4167 685.5,36C 705.522,29.326 725.522,22.6593 745.5,16C 750.968,12.4195 756.635,10.0861 762.5,9C 766.815,3.7978 772.148,0.631131 778.5,-0.5 Z"/></g>
<g><path style="opacity:1" fill="#f3da64" d="M 1001.5,-0.5 C 1008.83,-0.5 1016.17,-0.5 1023.5,-0.5C 1023.5,340.833 1023.5,682.167 1023.5,1023.5C 870.167,1023.5 716.833,1023.5 563.5,1023.5C 561.836,1022.26 560.669,1020.59 560,1018.5C 558.828,1012.16 557.661,1005.83 556.5,999.5C 554.549,999.773 553.049,999.107 552,997.5C 550.725,991.846 549.559,986.18 548.5,980.5C 546.408,980.439 544.908,979.439 544,977.5C 541.509,971.124 539.843,964.457 539,957.5C 535.287,951.048 532.953,944.048 532,936.5C 528.356,930.403 526.356,923.736 526,916.5C 520.897,902.21 517.397,887.543 515.5,872.5C 515.57,871.228 515.903,870.062 516.5,869C 514.308,863.752 512.642,858.252 511.5,852.5C 513.261,848.636 512.594,845.302 509.5,842.5C 510.063,841.061 510.397,839.561 510.5,838C 508.664,830.999 507.33,823.833 506.5,816.5C 572.168,816.667 637.834,816.5 703.5,816C 708.127,815.95 712.46,815.117 716.5,813.5C 720.539,812.684 724.539,811.684 728.5,810.5C 731.428,810.435 734.095,809.768 736.5,808.5C 746.121,804.922 755.788,801.255 765.5,797.5C 767.027,797.573 768.027,796.906 768.5,795.5C 772.022,793.574 775.688,791.907 779.5,790.5C 781.848,790.408 783.514,789.408 784.5,787.5C 786.657,785.588 788.991,783.921 791.5,782.5C 797.977,781.425 802.977,778.092 806.5,772.5C 810.745,767.764 815.745,763.931 821.5,761C 825.28,756.283 829.28,751.783 833.5,747.5C 837.338,745.006 840.005,741.673 841.5,737.5C 857.519,713.458 870.852,688.124 881.5,661.5C 883.163,659.562 883.829,657.228 883.5,654.5C 885.163,652.562 885.829,650.228 885.5,647.5C 887.607,640.972 888.94,634.305 889.5,627.5C 890.951,618.375 891.618,609.042 891.5,599.5C 891.499,593.657 891.166,587.99 890.5,582.5C 889.454,575.341 888.621,568.007 888,560.5C 887.796,557.203 886.963,554.203 885.5,551.5C 885.966,547.018 884.966,543.018 882.5,539.5C 876.874,516.613 867.207,495.613 853.5,476.5C 853.573,474.973 852.906,473.973 851.5,473.5C 842.815,461.965 833.482,450.798 823.5,440C 816.599,436.1 810.599,431.1 805.5,425C 803.131,424.464 801.131,423.297 799.5,421.5C 796.368,415.105 794.035,408.438 792.5,401.5C 792.241,398.728 791.241,396.395 789.5,394.5C 785.819,383.621 781.652,372.954 777,362.5C 769.152,350.801 761.818,338.801 755,326.5C 739.67,307.492 723.17,289.325 705.5,272C 701.696,270.757 698.696,268.424 696.5,265C 687.342,258.669 678.342,252.169 669.5,245.5C 668.697,244.577 668.53,243.577 669,242.5C 679.363,232.103 689.03,221.103 698,209.5C 702.167,206.667 705.667,203.167 708.5,199C 710.488,198.82 712.488,198.986 714.5,199.5C 714.192,197.076 714.526,194.743 715.5,192.5C 718.973,190.86 721.64,188.36 723.5,185C 725.5,184.667 727.5,184.333 729.5,184C 731.756,182.501 731.756,180.834 729.5,179C 733.136,175.034 737.136,171.368 741.5,168C 744.518,168.499 747.518,168.332 750.5,167.5C 749.332,165.783 747.665,165.116 745.5,165.5C 746.52,159.937 748.853,159.27 752.5,163.5C 755.908,161.978 756.241,159.812 753.5,157C 755.851,154.981 757.851,152.648 759.5,150C 760.094,149.536 760.761,149.369 761.5,149.5C 762.552,149.649 763.552,149.483 764.5,149C 769.341,143.309 775.341,139.642 782.5,138C 785.091,135.643 786.758,132.809 787.5,129.5C 794.136,129.196 799.47,126.53 803.5,121.5C 807.552,120.782 809.885,118.448 810.5,114.5C 817.669,112.834 822.502,108.501 825,101.5C 827.194,98.8194 830.027,97.3194 833.5,97C 840.12,92.3491 846.786,87.6824 853.5,83C 857.004,81.1491 860.67,79.8158 864.5,79C 866.515,75.654 869.515,73.9874 873.5,74C 875.093,73.0513 876.426,71.8846 877.5,70.5C 879.46,68.7903 881.627,68.457 884,69.5C 886.645,65.099 890.478,62.599 895.5,62C 905.014,57.0769 914.68,52.4102 924.5,48C 926.5,47.6667 928.5,47.3333 930.5,47C 931.257,45.4878 932.257,44.1545 933.5,43C 939.5,40 945.5,37 951.5,34C 954.7,31.9317 957.7,32.0984 960.5,34.5C 962.111,33.6798 962.778,32.3464 962.5,30.5C 966.484,30.5277 967.484,28.861 965.5,25.5C 966.552,25.6495 967.552,25.4828 968.5,25C 972.239,21.5867 976.239,18.5867 980.5,16C 981.833,15.6667 983.167,15.3333 984.5,15C 989.787,9.20343 995.454,4.03676 1001.5,-0.5 Z"/></g>
<g><path style="opacity:1" fill="#f9e595" d="M 482.5,-0.5 C 497.833,-0.5 513.167,-0.5 528.5,-0.5C 527.362,2.26745 525.528,2.93412 523,1.5C 519.04,2.67716 515.373,4.34383 512,6.5C 509.266,6.36709 506.599,6.36709 504,6.5C 503,7.5 502,8.5 501,9.5C 498.46,8.12353 496.46,8.79019 495,11.5C 494.439,10.9781 493.772,10.6448 493,10.5C 491.105,11.6886 489.105,12.6886 487,13.5C 486.667,13.1667 486.333,12.8333 486,12.5C 483.365,13.4735 481.365,15.1402 480,17.5C 477.25,16.7089 474.417,16.7089 471.5,17.5C 471.539,19.3588 470.706,20.6921 469,21.5C 468.667,20.8333 468.333,20.1667 468,19.5C 465.867,20.2551 464.2,21.5884 463,23.5C 462.275,22.9415 461.442,22.6082 460.5,22.5C 456.61,23.8417 452.61,24.675 448.5,25C 446.519,25.6054 446.185,26.6054 447.5,28C 443.899,28.6059 440.732,30.1059 438,32.5C 436.192,32.1119 434.525,32.1119 433,32.5C 429.167,34.8377 425.334,36.3377 421.5,37C 422.696,37.6543 422.696,38.1543 421.5,38.5C 420.833,38.1667 420.167,37.8333 419.5,37.5C 417.197,40.0033 414.531,40.67 411.5,39.5C 409.482,41.3501 407.649,43.3501 406,45.5C 403.391,45.7762 400.724,45.7762 398,45.5C 397.667,46.1667 397.333,46.8333 397,47.5C 394.979,46.7636 393.479,47.5969 392.5,50C 381.778,54.4341 371.944,59.6007 363,65.5C 362.586,65.0426 362.086,64.7093 361.5,64.5C 359.819,67.0546 357.986,68.7213 356,69.5C 355.667,69.1667 355.333,68.8333 355,68.5C 353.691,70.8912 352.691,70.8912 352,68.5C 350.513,69.2529 350.346,70.0862 351.5,71C 349.004,72.0804 346.67,73.4138 344.5,75C 343.965,77.1087 342.965,77.6087 341.5,76.5C 330.862,82.9799 320.196,88.4799 309.5,93C 307.451,95.5934 305.285,98.0934 303,100.5C 302.667,100.167 302.333,99.8333 302,99.5C 290.537,107.301 279.371,115.468 268.5,124C 267.551,124.617 266.718,124.451 266,123.5C 265.222,125.584 264.055,127.417 262.5,129C 258.79,130.377 255.624,132.543 253,135.5C 252.586,135.043 252.086,134.709 251.5,134.5C 244.919,142.315 236.919,148.482 227.5,153C 227.957,153.414 228.291,153.914 228.5,154.5C 226.006,156.494 223.673,158.661 221.5,161C 219.945,162.646 218.279,162.979 216.5,162C 214.537,163.762 213.204,165.429 212.5,167C 212.833,167.333 213.167,167.667 213.5,168C 209.365,171.463 205.198,174.963 201,178.5C 201.311,179.935 201.145,181.268 200.5,182.5C 197.043,184.127 193.71,185.96 190.5,188C 190.833,188.333 191.167,188.667 191.5,189C 187.383,192.441 183.216,195.941 179,199.5C 178.261,201.221 177.427,202.887 176.5,204.5C 170.716,209.701 164.716,214.701 158.5,219.5C 158.709,220.086 159.043,220.586 159.5,221C 158.167,221.667 156.833,222.333 155.5,223C 156.654,223.914 156.487,224.747 155,225.5C 152.871,224.137 152.371,224.471 153.5,226.5C 152.147,227.524 151.48,228.857 151.5,230.5C 150.178,230.33 149.011,230.663 148,231.5C 145.387,236.765 142.053,241.431 138,245.5C 135.116,248.685 131.949,251.518 128.5,254C 129.451,254.718 129.617,255.551 129,256.5C 126.189,257.223 123.689,259.056 121.5,262C 121.957,262.414 122.291,262.914 122.5,263.5C 119.805,266.526 117.138,269.526 114.5,272.5C 109.864,280.3 105.031,287.967 100,295.5C 98.9887,296.337 97.8221,296.67 96.5,296.5C 94.613,299.578 93.113,302.912 92,306.5C 90.786,308.049 89.286,309.215 87.5,310C 87.8333,310.333 88.1667,310.667 88.5,311C 87.8095,312.067 87.3095,313.234 87,314.5C 85.3335,313.66 85.1669,314.16 86.5,316C 85.7801,318.122 84.6134,318.622 83,317.5C 80.797,322.372 77.797,326.706 74,330.5C 71.5462,334.622 69.5462,338.955 68,343.5C 67.6667,343.167 67.3333,342.833 67,342.5C 65.5309,345.584 63.6975,348.417 61.5,351C 61.3201,354.58 59.3201,357.247 55.5,359C 55.9574,359.414 56.2907,359.914 56.5,360.5C 52.0914,367.488 48.0914,374.655 44.5,382C 44.8333,382.333 45.1667,382.667 45.5,383C 44.1667,384.333 42.8333,385.667 41.5,387C 41.8333,387.333 42.1667,387.667 42.5,388C 40.9949,391.347 38.9949,394.347 36.5,397C 37.1667,397.667 37.8333,398.333 38.5,399C 35.712,399.726 34.212,401.56 34,404.5C 33.6667,404.167 33.3333,403.833 33,403.5C 32.2424,408.187 30.0757,412.021 26.5,415C 26.9574,415.414 27.2907,415.914 27.5,416.5C 17.9384,436.74 9.43841,458.073 2,480.5C 1.32924,481.252 0.495904,481.586 -0.5,481.5C -0.5,468.167 -0.5,454.833 -0.5,441.5C 0.301916,440.048 0.801916,438.382 1,436.5C 1.33333,438.167 1.66667,439.833 2,441.5C 3.16667,439.667 4.66667,438.167 6.5,437C 6.04265,436.586 5.70931,436.086 5.5,435.5C 6.41539,433.02 7.91539,432.353 10,433.5C 10.9794,431.68 12.4794,430.513 14.5,430C 14.0183,428.992 13.8516,427.825 14,426.5C 12.8687,427.604 12.0354,427.271 11.5,425.5C 12.3966,425.331 13.3966,424.998 14.5,424.5C 13.91,423.201 12.91,422.368 11.5,422C 15.1336,420.906 16.1336,418.74 14.5,415.5C 15.552,415.649 16.552,415.483 17.5,415C 15.0444,413.087 15.3778,411.421 18.5,410C 18.1667,409.667 17.8333,409.333 17.5,409C 18.7014,408.097 19.5348,406.931 20,405.5C 20.7175,406.451 21.5509,406.617 22.5,406C 21.3595,405.259 21.3595,404.425 22.5,403.5C 23.5,403.167 24.5,402.833 25.5,402.5C 29.267,404.389 30.6004,403.389 29.5,399.5C 30.9079,398.757 32.2412,397.923 33.5,397C 31.4758,394.751 29.8091,392.251 28.5,389.5C 31.2195,387.781 33.2195,385.447 34.5,382.5C 33.435,380.147 33.6017,377.814 35,375.5C 35.3333,376.5 35.6667,377.5 36,378.5C 36.2718,375.568 37.4385,373.068 39.5,371C 38.8333,370.333 38.1667,369.667 37.5,369C 39.8878,368.135 41.3878,368.968 42,371.5C 42.5,370.333 43.3333,369.5 44.5,369C 39.8971,364.569 40.5638,362.569 46.5,363C 45.0652,360.733 45.3985,358.733 47.5,357C 46.1667,356.333 45.1667,355.333 44.5,354C 46.7567,354.437 49.09,354.937 51.5,355.5C 52.0522,353.669 52.0522,352.003 51.5,350.5C 53.1083,349.682 54.7749,349.015 56.5,348.5C 57.1924,349.025 57.6924,349.692 58,350.5C 59.2045,349.141 60.7045,348.141 62.5,347.5C 61.6034,347.331 60.6034,346.998 59.5,346.5C 60.624,345.086 61.624,343.586 62.5,342C 57.8865,339.337 57.8865,337.67 62.5,337C 62.5385,335.755 62.2052,334.422 61.5,333C 63.4679,331.342 65.4679,329.675 67.5,328C 67.1667,327.667 66.8333,327.333 66.5,327C 68.2132,325.075 69.5465,322.908 70.5,320.5C 72.3217,319.571 73.6551,320.238 74.5,322.5C 74.8333,322.167 75.1667,321.833 75.5,321.5C 74.2532,319.958 74.2532,318.458 75.5,317C 74.1667,317 72.8333,317 71.5,317C 72.2921,314.664 73.6254,314.164 75.5,315.5C 76.2432,314.092 77.0766,312.759 78,311.5C 79.2289,313.947 80.7289,314.113 82.5,312C 83.7112,311.107 83.7112,310.274 82.5,309.5C 80.9825,310.911 79.6492,310.744 78.5,309C 79.7659,308.691 80.9326,308.191 82,307.5C 82.3333,307.833 82.6667,308.167 83,308.5C 85.6663,306.501 88.1663,304.001 90.5,301C 90.1667,300.667 89.8333,300.333 89.5,300C 90.3081,299.692 90.9747,299.192 91.5,298.5C 90.7366,297.281 89.7366,296.281 88.5,295.5C 88.8457,294.304 89.3457,294.304 90,295.5C 90.7826,293.567 90.2826,292.067 88.5,291C 91.6295,289.681 94.2962,287.848 96.5,285.5C 97.1667,285.667 97.8333,285.833 98.5,286C 97.2888,286.893 97.2888,287.726 98.5,288.5C 100.973,286.758 100.973,284.925 98.5,283C 100.952,282.59 103.285,281.257 105.5,279C 104.5,278.667 103.5,278.333 102.5,278C 104.766,274.894 106.266,271.061 107,266.5C 107.414,266.957 107.914,267.291 108.5,267.5C 109.327,265.838 110.493,264.505 112,263.5C 112.353,262.328 112.187,261.162 111.5,260C 112.586,256.453 114.419,252.953 117,249.5C 117.667,248.167 118.333,248.167 119,249.5C 119.915,248.672 120.581,247.672 121,246.5C 122.583,246.493 124.249,246.826 126,247.5C 127,245.5 128,243.5 129,241.5C 130.333,242.833 131.667,242.833 133,241.5C 134.685,243.988 136.019,243.655 137,240.5C 137.163,238.613 136.329,237.113 134.5,236C 135.167,235 135.833,234 136.5,233C 135.262,233.077 134.262,232.911 133.5,232.5C 135.457,230.445 136.957,228.112 138,225.5C 138.333,225.833 138.667,226.167 139,226.5C 139,225.167 139,223.833 139,222.5C 139.414,222.957 139.914,223.291 140.5,223.5C 141.934,222.064 143.1,220.398 144,218.5C 144.333,218.833 144.667,219.167 145,219.5C 146.067,218.809 147.234,218.309 148.5,218C 147.167,217.333 147.167,216.667 148.5,216C 151.416,215.951 152.416,214.784 151.5,212.5C 153.113,211.573 154.779,210.739 156.5,210C 156.857,207.463 158.523,205.463 161.5,204C 160.747,202.513 159.914,202.346 159,203.5C 158.73,202.068 159.396,201.068 161,200.5C 162.605,203.274 164.772,203.94 167.5,202.5C 165.603,201.332 165.436,199.665 167,197.5C 167.414,197.957 167.914,198.291 168.5,198.5C 170.96,196.904 173.626,195.738 176.5,195C 175.09,194.632 174.09,193.799 173.5,192.5C 175.027,190.807 176.36,188.973 177.5,187C 176.216,185.703 176.383,184.536 178,183.5C 178.779,184.728 179.779,185.728 181,186.5C 182.523,184.646 184.356,183.146 186.5,182C 188.367,181.289 189.867,181.789 191,183.5C 192.824,182.251 192.657,181.085 190.5,180C 191.715,177.904 192.549,178.071 193,180.5C 193.5,179.333 194.333,178.5 195.5,178C 194.692,177.692 194.025,177.192 193.5,176.5C 195.22,175.066 197.22,174.233 199.5,174C 198.911,172.127 199.578,170.46 201.5,169C 200.833,168.667 200.167,168.333 199.5,168C 202.47,166.847 205.137,165.18 207.5,163C 206.692,162.692 206.025,162.192 205.5,161.5C 206.592,158.906 208.259,156.739 210.5,155C 208.892,154.342 207.725,154.842 207,156.5C 206.333,154.833 206.333,153.167 207,151.5C 208.965,152.885 210.798,152.718 212.5,151C 209.736,149.456 209.903,148.289 213,147.5C 214.714,148.925 216.047,148.592 217,146.5C 217.333,147.167 217.667,147.833 218,148.5C 218.785,146.714 219.951,145.214 221.5,144C 223.899,143.269 226.065,142.102 228,140.5C 228.667,139.833 228.667,139.167 228,138.5C 227.333,139.833 226.667,139.833 226,138.5C 225.333,137.5 225.333,136.5 226,135.5C 228.39,136.116 230.556,136.116 232.5,135.5C 233.845,134.653 234.845,133.487 235.5,132C 236.449,131.383 237.282,131.549 238,132.5C 238.825,129.316 240.658,126.816 243.5,125C 244.549,124.508 245.549,124.674 246.5,125.5C 247.914,124.376 249.414,123.376 251,122.5C 251.915,123.328 252.581,124.328 253,125.5C 254.458,123.04 256.291,120.873 258.5,119C 262.15,119.164 262.983,117.997 261,115.5C 260.667,115.833 260.333,116.167 260,116.5C 259.5,115.333 258.667,114.5 257.5,114C 259.818,113.658 261.985,114.158 264,115.5C 266.479,113.749 267.312,111.582 266.5,109C 268.126,109.195 269.793,109.195 271.5,109C 270.833,108.667 270.167,108.333 269.5,108C 271.225,103.863 274.058,102.03 278,102.5C 278.918,100.368 280.251,99.701 282,100.5C 282.93,98.4476 284.43,96.9476 286.5,96C 284.833,95.6667 283.167,95.3333 281.5,95C 284.614,94.8771 287.614,94.7104 290.5,94.5C 290.291,93.914 289.957,93.414 289.5,93C 292.362,91.0695 295.362,89.4029 298.5,88C 299.126,87.2496 299.626,86.4162 300,85.5C 300.333,85.8333 300.667,86.1667 301,86.5C 303.621,84.4359 305.955,82.7692 308,81.5C 308.494,79.8659 308.66,78.1992 308.5,76.5C 310.201,76.0338 311.701,76.0338 313,76.5C 314.439,74.9861 315.939,74.6527 317.5,75.5C 319.54,73.629 321.374,71.629 323,69.5C 323.349,70.4725 324.182,71.3058 325.5,72C 323.216,73.3629 323.049,74.8629 325,76.5C 327.048,74.213 329.215,74.0464 331.5,76C 328.646,77.0539 325.979,78.5539 323.5,80.5C 324.628,81.2621 325.795,81.9288 327,82.5C 327.617,81.5509 327.451,80.7175 326.5,80C 330.664,79.177 333.831,77.0103 336,73.5C 337.726,74.5762 339.559,74.7429 341.5,74C 341.167,73.6667 340.833,73.3333 340.5,73C 342.854,70.6523 345.521,69.9856 348.5,71C 349.634,69.984 349.301,69.3173 347.5,69C 348.956,68.5774 349.456,67.7441 349,66.5C 347.333,67.1667 345.667,67.8333 344,68.5C 343.833,68.1667 343.667,67.8333 343.5,67.5C 345.121,65.1026 347.788,63.2693 351.5,62C 350.549,61.2825 350.383,60.4491 351,59.5C 353.056,60.5832 354.389,62.2499 355,64.5C 356,63.8333 357,63.1667 358,62.5C 359.608,63.4332 360.441,62.7665 360.5,60.5C 358.319,58.8704 358.319,57.5371 360.5,56.5C 361.148,58.1492 362.148,59.4825 363.5,60.5C 365.046,59.316 366.713,58.316 368.5,57.5C 369.23,55.9938 369.563,54.6605 369.5,53.5C 370.216,54.311 371.05,54.9777 372,55.5C 374.248,54.0452 376.748,53.2118 379.5,53C 379.167,52.6667 378.833,52.3333 378.5,52C 379.249,50.2663 379.749,48.433 380,46.5C 381.281,46.3808 382.448,46.8808 383.5,48C 381.343,49.0847 381.176,50.2513 383,51.5C 385.183,49.9243 387.349,48.2577 389.5,46.5C 390.086,46.7093 390.586,47.0426 391,47.5C 390.426,45.2244 390.592,42.8911 391.5,40.5C 389.774,40.8146 388.107,40.9813 386.5,41C 385.167,40 385.167,39 386.5,38C 387.935,38.3112 389.268,38.1445 390.5,37.5C 392.323,38.4909 393.823,39.8243 395,41.5C 395.583,39.9984 396.416,38.6651 397.5,37.5C 398.842,38.9023 399.676,38.5689 400,36.5C 401.073,37.2797 402.24,37.113 403.5,36C 401.5,35.3333 400.167,34 399.5,32C 400.715,29.9045 401.549,30.0712 402,32.5C 403.999,30.8905 406.332,28.8905 409,26.5C 408.143,29.5357 409.31,30.2024 412.5,28.5C 414.625,30.9571 416.459,30.6238 418,27.5C 419.062,28.8993 420.395,29.8993 422,30.5C 423.762,30.0556 423.595,29.5556 421.5,29C 422.931,28.5348 424.097,27.7014 425,26.5C 425.718,27.4506 426.551,27.6172 427.5,27C 426.483,25.9505 426.316,24.7839 427,23.5C 427.333,23.8333 427.667,24.1667 428,24.5C 429.758,23.5305 430.258,22.3639 429.5,21C 430.5,20.3333 431.5,20.3333 432.5,21C 432.167,21.3333 431.833,21.6667 431.5,22C 433.684,22.4424 435.684,21.9424 437.5,20.5C 438.711,19.2798 438.711,18.1131 437.5,17C 440.006,15.4935 441.672,13.3268 442.5,10.5C 444.55,11.0766 445.55,12.4099 445.5,14.5C 448.598,14.5875 448.932,14.0875 446.5,13C 447.579,12.044 448.745,11.2106 450,10.5C 451.761,14.1854 453.428,13.8521 455,9.5C 456.866,12.0462 456.366,14.2129 453.5,16C 455.983,16.1698 458.149,15.3365 460,13.5C 461.585,14.3757 462.585,15.7091 463,17.5C 464.284,16.4281 464.617,15.0948 464,13.5C 465.991,11.5428 467.991,9.54277 470,7.5C 472.829,8.67447 473.829,7.67447 473,4.5C 472.667,4.83333 472.333,5.16667 472,5.5C 470.991,3.97506 470.491,2.30839 470.5,0.5C 474.702,0.816751 478.702,0.483418 482.5,-0.5 Z"/></g>
<g><path style="opacity:1" fill="#f3d96c" d="M 877.5,70.5 C 876.426,71.8846 875.093,73.0513 873.5,74C 869.515,73.9874 866.515,75.654 864.5,79C 860.67,79.8158 857.004,81.1491 853.5,83C 846.786,87.6824 840.12,92.3491 833.5,97C 830.027,97.3194 827.194,98.8194 825,101.5C 822.502,108.501 817.669,112.834 810.5,114.5C 809.885,118.448 807.552,120.782 803.5,121.5C 799.47,126.53 794.136,129.196 787.5,129.5C 786.758,132.809 785.091,135.643 782.5,138C 775.341,139.642 769.341,143.309 764.5,149C 763.552,149.483 762.552,149.649 761.5,149.5C 764.974,146.198 768.641,143.032 772.5,140C 780.162,139.339 785.162,135.339 787.5,128C 791.009,127.469 794.342,126.469 797.5,125C 800.246,122.581 803.246,120.581 806.5,119C 808.607,117.736 809.607,115.903 809.5,113.5C 814.775,112.753 818.942,110.086 822,105.5C 823.25,99.9194 826.75,96.7528 832.5,96C 846.305,85.1449 861.305,76.6449 877.5,70.5 Z"/></g>
<g><path style="opacity:1" fill="#faf7e9" d="M 534.5,201.5 C 525.854,200.913 517.188,200.58 508.5,200.5C 495.092,200.469 481.758,201.136 468.5,202.5C 488.894,199.609 509.561,198.776 530.5,200C 532.058,200.21 533.391,200.71 534.5,201.5 Z"/></g>
<g><path style="opacity:1" fill="#faf9f9" d="M 534.5,201.5 C 539.363,201.181 544.03,201.514 548.5,202.5C 552.358,203.294 556.358,203.96 560.5,204.5C 570.407,205.538 580.074,207.538 589.5,210.5C 591.905,211.768 594.572,212.435 597.5,212.5C 614.384,218.072 631.051,224.572 647.5,232C 653.919,237.904 661.252,242.404 669.5,245.5C 678.342,252.169 687.342,258.669 696.5,265C 698.696,268.424 701.696,270.757 705.5,272C 723.17,289.325 739.67,307.492 755,326.5C 761.818,338.801 769.152,350.801 777,362.5C 781.652,372.954 785.819,383.621 789.5,394.5C 789.759,397.272 790.759,399.605 792.5,401.5C 794.035,408.438 796.368,415.105 799.5,421.5C 801.131,423.297 803.131,424.464 805.5,425C 810.599,431.1 816.599,436.1 823.5,440C 833.482,450.798 842.815,461.965 851.5,473.5C 851.427,475.027 852.094,476.027 853.5,476.5C 867.207,495.613 876.874,516.613 882.5,539.5C 883.508,543.596 884.508,547.596 885.5,551.5C 886.963,554.203 887.796,557.203 888,560.5C 888.621,568.007 889.454,575.341 890.5,582.5C 890.591,597.512 890.257,612.512 889.5,627.5C 888.94,634.305 887.607,640.972 885.5,647.5C 884.388,649.599 883.721,651.933 883.5,654.5C 882.076,656.515 881.41,658.848 881.5,661.5C 870.852,688.124 857.519,713.458 841.5,737.5C 838.46,740.539 835.794,743.873 833.5,747.5C 829.28,751.783 825.28,756.283 821.5,761C 815.745,763.931 810.745,767.764 806.5,772.5C 801.958,776.563 796.958,779.896 791.5,782.5C 788.991,783.921 786.657,785.588 784.5,787.5C 782.435,787.953 780.768,788.953 779.5,790.5C 775.688,791.907 772.022,793.574 768.5,795.5C 766.973,795.427 765.973,796.094 765.5,797.5C 755.788,801.255 746.121,804.922 736.5,808.5C 733.447,808.111 730.78,808.777 728.5,810.5C 724.539,811.684 720.539,812.684 716.5,813.5C 711.851,814.065 707.184,814.565 702.5,815C 574.5,815.5 446.5,815.667 318.5,815.5C 312.046,814.123 305.38,813.29 298.5,813C 287.589,809.349 276.589,806.016 265.5,803C 254.882,798.423 244.215,793.756 233.5,789C 230.153,785.491 226.153,782.991 221.5,781.5C 207.534,770.698 194.367,759.031 182,746.5C 175.614,739.409 169.948,731.742 165,723.5C 162.016,717.531 159.016,711.531 156,705.5C 155.075,704.953 154.242,704.287 153.5,703.5C 150.009,693.022 145.343,683.189 139.5,674C 137.504,667.853 135.671,661.686 134,655.5C 133.333,654.167 132.333,653.167 131,652.5C 129.161,644.093 127.661,635.759 126.5,627.5C 125.78,612.845 125.447,598.178 125.5,583.5C 126.4,570.153 128.234,556.82 131,543.5C 134.947,534.835 137.947,525.835 140,516.5C 144.298,507.52 148.632,498.52 153,489.5C 170.768,461.56 192.935,437.56 219.5,417.5C 225.143,395.534 233.476,374.867 244.5,355.5C 245.376,355.631 246.043,355.298 246.5,354.5C 247.401,350.953 248.735,347.62 250.5,344.5C 254.967,338.674 258.8,332.341 262,325.5C 287.031,293.134 316.531,265.634 350.5,243C 357.241,240.082 363.575,236.415 369.5,232C 386.999,223.746 404.999,216.913 423.5,211.5C 429.051,210.584 434.385,209.25 439.5,207.5C 449.179,206.013 458.845,204.346 468.5,202.5C 481.758,201.136 495.092,200.469 508.5,200.5C 517.188,200.58 525.854,200.913 534.5,201.5 Z"/></g>
<g><path style="opacity:1" fill="#faedc1" d="M 548.5,202.5 C 552.182,202.335 555.848,202.501 559.5,203C 560.056,203.383 560.389,203.883 560.5,204.5C 556.358,203.96 552.358,203.294 548.5,202.5 Z"/></g>
<g><path style="opacity:1" fill="#faf4d8" d="M 439.5,207.5 C 434.385,209.25 429.051,210.584 423.5,211.5C 426.146,209.747 429.146,208.747 432.5,208.5C 434.806,208.007 437.139,207.674 439.5,207.5 Z"/></g>
<g><path style="opacity:1" fill="#fae6ab" d="M 589.5,210.5 C 592.495,210.294 595.162,210.96 597.5,212.5C 594.572,212.435 591.905,211.768 589.5,210.5 Z"/></g>
<g><path style="opacity:1" fill="#f3da77" d="M 583.5,357.5 C 582.761,357.369 582.094,357.536 581.5,358C 573.747,371.06 566.081,384.227 558.5,397.5C 560.045,398.452 561.712,398.785 563.5,398.5C 540.553,402.879 519.887,412.379 501.5,427C 497.694,430.806 493.86,434.64 490,438.5C 475.143,423.996 458.31,412.162 439.5,403C 429.488,398.16 419.155,393.993 408.5,390.5C 403.614,388.87 398.614,387.87 393.5,387.5C 394.779,383.698 397.112,380.531 400.5,378C 411.277,369.438 422.61,361.605 434.5,354.5C 449.384,348.276 464.718,343.276 480.5,339.5C 517.342,333.127 551.675,339.127 583.5,357.5 Z"/></g>
<g><path style="opacity:1" fill="#faefcc" d="M 250.5,344.5 C 248.735,347.62 247.401,350.953 246.5,354.5C 246.043,355.298 245.376,355.631 244.5,355.5C 245.476,351.19 247.476,347.524 250.5,344.5 Z"/></g>
<g><path style="opacity:1" fill="#f3da66" d="M 583.5,357.5 C 588.589,359.739 593.589,362.239 598.5,365C 602.849,368.835 607.516,372.169 612.5,375C 619.642,382.142 626.809,389.309 634,396.5C 634.782,399.076 636.282,401.076 638.5,402.5C 637.833,402.833 637.167,403.167 636.5,403.5C 630.615,401.536 624.615,400.202 618.5,399.5C 616.721,397.656 614.388,396.99 611.5,397.5C 600.536,395.501 589.536,395.168 578.5,396.5C 578.167,396.5 577.833,396.5 577.5,396.5C 572.878,396.156 568.545,396.823 564.5,398.5C 564.167,398.5 563.833,398.5 563.5,398.5C 561.712,398.785 560.045,398.452 558.5,397.5C 566.081,384.227 573.747,371.06 581.5,358C 582.094,357.536 582.761,357.369 583.5,357.5 Z"/></g>
<g><path style="opacity:1" fill="#faf4da" d="M 578.5,396.5 C 589.536,395.168 600.536,395.501 611.5,397.5C 600.493,397.342 589.493,397.008 578.5,396.5 Z"/></g>
<g><path style="opacity:1" fill="#faf1ca" d="M 789.5,394.5 C 791.241,396.395 792.241,398.728 792.5,401.5C 790.759,399.605 789.759,397.272 789.5,394.5 Z"/></g>
<g><path style="opacity:1" fill="#faf1cd" d="M 577.5,396.5 C 573.433,398.054 569.1,398.72 564.5,398.5C 568.545,396.823 572.878,396.156 577.5,396.5 Z"/></g>
<g><path style="opacity:1" fill="#faf2cc" d="M 611.5,397.5 C 614.388,396.99 616.721,397.656 618.5,399.5C 615.848,399.59 613.515,398.924 611.5,397.5 Z"/></g>
<g><path style="opacity:1" fill="#f3da76" d="M 586.5,473.5 C 586.755,475.967 587.755,477.967 589.5,479.5C 590.868,482.921 592.534,486.255 594.5,489.5C 594.755,491.967 595.755,493.967 597.5,495.5C 599.302,499.554 601.302,503.554 603.5,507.5C 602.265,507.279 601.265,506.612 600.5,505.5C 599.328,505.919 598.328,506.585 597.5,507.5C 593.65,516.214 590.484,525.214 588,534.5C 585.431,550.682 582.097,566.682 578,582.5C 577.165,593.84 576.332,605.173 575.5,616.5C 578.385,616.194 581.052,616.527 583.5,617.5C 580.772,617.171 578.438,617.837 576.5,619.5C 572.569,620.132 569.235,621.799 566.5,624.5C 554.574,630.261 542.907,636.595 531.5,643.5C 528.552,643.777 525.719,643.444 523,642.5C 522.913,637.512 523.08,632.512 523.5,627.5C 524.743,623.214 525.743,618.881 526.5,614.5C 528.757,606.093 530.091,597.427 530.5,588.5C 531.555,585.927 531.722,583.261 531,580.5C 516.974,567.139 502.974,553.806 489,540.5C 487.926,533.741 490.76,530.741 497.5,531.5C 504.239,531.488 510.905,530.821 517.5,529.5C 523.394,529.061 529.06,528.061 534.5,526.5C 539.892,526.197 545.225,525.531 550.5,524.5C 552.197,521.106 553.864,517.773 555.5,514.5C 557.448,512.68 558.448,510.346 558.5,507.5C 563.793,497.249 568.793,486.916 573.5,476.5C 575.008,474.819 576.008,472.819 576.5,470.5C 580.97,467.254 584.304,468.254 586.5,473.5 Z"/></g>
<g><path style="opacity:1" fill="#f8eec3" d="M 576.5,470.5 C 576.008,472.819 575.008,474.819 573.5,476.5C 573.461,473.911 574.461,471.911 576.5,470.5 Z"/></g>
<g><path style="opacity:1" fill="#f9e8ac" d="M 851.5,473.5 C 852.906,473.973 853.573,474.973 853.5,476.5C 852.094,476.027 851.427,475.027 851.5,473.5 Z"/></g>
<g><path style="opacity:1" fill="#f6e7a7" d="M 586.5,473.5 C 588.245,475.033 589.245,477.033 589.5,479.5C 587.755,477.967 586.755,475.967 586.5,473.5 Z"/></g>
<g><path style="opacity:1" fill="#f8eaac" d="M 594.5,489.5 C 596.245,491.033 597.245,493.033 597.5,495.5C 595.755,493.967 594.755,491.967 594.5,489.5 Z"/></g>
<g><path style="opacity:1" fill="#f3da65" d="M 603.5,507.5 C 604.736,509.649 605.736,511.982 606.5,514.5C 607.611,517.856 609.277,520.856 611.5,523.5C 620.613,525.366 629.947,526.699 639.5,527.5C 645.589,529.236 651.922,530.236 658.5,530.5C 663.199,531.065 667.865,531.898 672.5,533C 674.396,534.808 674.896,536.975 674,539.5C 666.611,547.057 659.111,554.39 651.5,561.5C 644.89,566.441 638.89,572.108 633.5,578.5C 632.275,579.152 631.608,580.319 631.5,582C 631.514,583.385 631.848,584.551 632.5,585.5C 632.851,589.684 633.518,593.684 634.5,597.5C 635.551,606.667 636.884,615.667 638.5,624.5C 638.966,630.491 639.299,636.491 639.5,642.5C 636.976,643.8 634.309,643.8 631.5,642.5C 623.646,638.741 615.979,634.741 608.5,630.5C 606.434,628.801 604.1,627.468 601.5,626.5C 595.156,623.995 589.156,620.995 583.5,617.5C 581.052,616.527 578.385,616.194 575.5,616.5C 576.332,605.173 577.165,593.84 578,582.5C 582.097,566.682 585.431,550.682 588,534.5C 590.484,525.214 593.65,516.214 597.5,507.5C 598.328,506.585 599.328,505.919 600.5,505.5C 601.265,506.612 602.265,507.279 603.5,507.5 Z"/></g>
<g><path style="opacity:1" fill="#f6e9aa" d="M 558.5,507.5 C 558.448,510.346 557.448,512.68 555.5,514.5C 555.935,511.843 556.935,509.509 558.5,507.5 Z"/></g>
<g><path style="opacity:1" fill="#f7e7a5" d="M 606.5,514.5 C 609.444,516.716 611.111,519.716 611.5,523.5C 609.277,520.856 607.611,517.856 606.5,514.5 Z"/></g>
<g><path style="opacity:1" fill="#f3da77" d="M 366.5,554.5 C 364.229,556.612 362.896,559.279 362.5,562.5C 350.053,603.167 359.053,638 389.5,667C 395.405,670.755 401.405,674.255 407.5,677.5C 382.005,678.498 356.339,678.831 330.5,678.5C 315.027,674.189 301.027,667.022 288.5,657C 283.298,651.404 278.465,645.57 274,639.5C 269.71,631.119 266.543,622.452 264.5,613.5C 263.622,606.862 262.956,600.195 262.5,593.5C 264.089,584.986 266.422,576.652 269.5,568.5C 271.241,566.605 272.241,564.272 272.5,561.5C 279.574,547.592 289.907,536.759 303.5,529C 307.957,526.61 312.623,524.777 317.5,523.5C 320.01,523.073 322.343,522.407 324.5,521.5C 344.614,516.487 363.614,519.32 381.5,530C 381.833,530.333 382.167,530.667 382.5,531C 375.717,537.932 370.383,545.765 366.5,554.5 Z"/></g>
<g><path style="opacity:1" fill="#faedc2" d="M 324.5,521.5 C 322.343,522.407 320.01,523.073 317.5,523.5C 317.611,522.883 317.944,522.383 318.5,522C 320.473,521.505 322.473,521.338 324.5,521.5 Z"/></g>
<g><path style="opacity:1" fill="#f9f1cf" d="M 639.5,527.5 C 646.178,527.127 652.511,528.127 658.5,530.5C 651.922,530.236 645.589,529.236 639.5,527.5 Z"/></g>
<g><path style="opacity:1" fill="#faeab2" d="M 534.5,526.5 C 529.06,528.061 523.394,529.061 517.5,529.5C 517.5,529.167 517.5,528.833 517.5,528.5C 523.071,527.103 528.738,526.436 534.5,526.5 Z"/></g>
<g><path style="opacity:1" fill="#f9f3d6" d="M 517.5,528.5 C 517.5,528.833 517.5,529.167 517.5,529.5C 510.905,530.821 504.239,531.488 497.5,531.5C 503.91,529.719 510.576,528.719 517.5,528.5 Z"/></g>
<g><path style="opacity:1" fill="#faf0c9" d="M 882.5,539.5 C 884.966,543.018 885.966,547.018 885.5,551.5C 884.508,547.596 883.508,543.596 882.5,539.5 Z"/></g>
<g><path style="opacity:1" fill="#fae9b3" d="M 366.5,554.5 C 365.721,557.545 364.387,560.211 362.5,562.5C 362.896,559.279 364.229,556.612 366.5,554.5 Z"/></g>
<g><path style="opacity:1" fill="#faeab8" d="M 272.5,561.5 C 272.241,564.272 271.241,566.605 269.5,568.5C 269.759,565.728 270.759,563.395 272.5,561.5 Z"/></g>
<g><path style="opacity:1" fill="#faefd0" d="M 651.5,561.5 C 646.11,567.892 640.11,573.559 633.5,578.5C 638.89,572.108 644.89,566.441 651.5,561.5 Z"/></g>
<g><path style="opacity:1" fill="#faefc2" d="M 633.5,578.5 C 632.631,580.717 632.298,583.05 632.5,585.5C 631.848,584.551 631.514,583.385 631.5,582C 631.608,580.319 632.275,579.152 633.5,578.5 Z"/></g>
<g><path style="opacity:1" fill="#faebb5" d="M 890.5,582.5 C 891.166,587.99 891.499,593.657 891.5,599.5C 891.618,609.042 890.951,618.375 889.5,627.5C 890.257,612.512 890.591,597.512 890.5,582.5 Z"/></g>
<g><path style="opacity:1" fill="#faecc3" d="M 125.5,583.5 C 125.447,598.178 125.78,612.845 126.5,627.5C 125.084,618.373 124.417,609.039 124.5,599.5C 124.501,593.989 124.834,588.656 125.5,583.5 Z"/></g>
<g><path style="opacity:1" fill="#f7e6a0" d="M 530.5,588.5 C 530.091,597.427 528.757,606.093 526.5,614.5C 526.75,605.532 528.083,596.865 530.5,588.5 Z"/></g>
<g><path style="opacity:1" fill="#faefc7" d="M 262.5,593.5 C 262.956,600.195 263.622,606.862 264.5,613.5C 263.718,610.286 262.885,606.952 262,603.5C 261.192,599.973 261.359,596.64 262.5,593.5 Z"/></g>
<g><path style="opacity:1" fill="#f9f2cf" d="M 634.5,597.5 C 635.117,597.611 635.617,597.944 636,598.5C 637.091,607.148 637.924,615.815 638.5,624.5C 636.884,615.667 635.551,606.667 634.5,597.5 Z"/></g>
<g><path style="opacity:1" fill="#faf2d4" d="M 576.5,619.5 C 573.765,622.201 570.431,623.868 566.5,624.5C 569.235,621.799 572.569,620.132 576.5,619.5 Z"/></g>
<g><path style="opacity:1" fill="#f7e6a5" d="M 601.5,626.5 C 604.1,627.468 606.434,628.801 608.5,630.5C 605.454,630.275 603.121,628.942 601.5,626.5 Z"/></g>
<g><path style="opacity:1" fill="#f4e188" d="M 638.5,624.5 C 640.03,627.695 640.696,631.195 640.5,635C 640.497,637.69 640.164,640.19 639.5,642.5C 639.299,636.491 638.966,630.491 638.5,624.5 Z"/></g>
<g><path style="opacity:1" fill="#faecba" d="M 523.5,627.5 C 523.08,632.512 522.913,637.512 523,642.5C 525.719,643.444 528.552,643.777 531.5,643.5C 528.447,646.14 525.28,646.14 522,643.5C 521.333,639.167 521.333,634.833 522,630.5C 522.232,629.263 522.732,628.263 523.5,627.5 Z"/></g>
<g><path style="opacity:1" fill="#faf0c6" d="M 885.5,647.5 C 885.829,650.228 885.163,652.562 883.5,654.5C 883.721,651.933 884.388,649.599 885.5,647.5 Z"/></g>
<g><path style="opacity:1" fill="#f6e395" d="M 883.5,654.5 C 883.829,657.228 883.163,659.562 881.5,661.5C 881.41,658.848 882.076,656.515 883.5,654.5 Z"/></g>
<g><path style="opacity:1" fill="#faedc8" d="M 407.5,677.5 C 408.043,677.56 408.376,677.893 408.5,678.5C 382.336,679.829 356.336,679.829 330.5,678.5C 356.339,678.831 382.005,678.498 407.5,677.5 Z"/></g>
<g><path style="opacity:1" fill="#f6e595" d="M 841.5,737.5 C 840.005,741.673 837.338,745.006 833.5,747.5C 835.794,743.873 838.46,740.539 841.5,737.5 Z"/></g>
<g><path style="opacity:1" fill="#f6e28b" d="M 806.5,772.5 C 802.977,778.092 797.977,781.425 791.5,782.5C 796.958,779.896 801.958,776.563 806.5,772.5 Z"/></g>
<g><path style="opacity:1" fill="#f3da76" d="M 221.5,781.5 C 226.153,782.991 230.153,785.491 233.5,789C 244.215,793.756 254.882,798.423 265.5,803C 276.589,806.016 287.589,809.349 298.5,813C 305.38,813.29 312.046,814.123 318.5,815.5C 380.998,816.499 443.664,816.832 506.5,816.5C 507.33,823.833 508.664,830.999 510.5,838C 510.397,839.561 510.063,841.061 509.5,842.5C 512.594,845.302 513.261,848.636 511.5,852.5C 512.642,858.252 514.308,863.752 516.5,869C 515.903,870.062 515.57,871.228 515.5,872.5C 517.397,887.543 520.897,902.21 526,916.5C 526.356,923.736 528.356,930.403 532,936.5C 532.953,944.048 535.287,951.048 539,957.5C 539.843,964.457 541.509,971.124 544,977.5C 544.908,979.439 546.408,980.439 548.5,980.5C 549.559,986.18 550.725,991.846 552,997.5C 553.049,999.107 554.549,999.773 556.5,999.5C 557.661,1005.83 558.828,1012.16 560,1018.5C 560.669,1020.59 561.836,1022.26 563.5,1023.5C 466.5,1023.5 369.5,1023.5 272.5,1023.5C 268.041,1013.95 264.874,1003.95 263,993.5C 259.522,989.08 257.189,984.08 256,978.5C 255.227,971.074 253.06,964.074 249.5,957.5C 248.897,953.446 248.064,949.446 247,945.5C 242.26,934.761 239.26,923.428 238,911.5C 235.128,905.251 232.961,898.751 231.5,892C 231.645,891.228 231.978,890.561 232.5,890C 231.111,884.628 230.277,879.128 230,873.5C 226.24,864.363 224.407,855.196 224.5,846C 224.241,844.739 223.574,843.739 222.5,843C 223.059,842.275 223.392,841.442 223.5,840.5C 222.969,837.265 222.302,834.098 221.5,831C 222.683,828.845 222.35,826.845 220.5,825C 221.496,820.617 221.163,816.284 219.5,812C 220.167,811 220.833,810 221.5,809C 219.36,807.233 219.027,805.233 220.5,803C 219.148,795.372 218.648,787.872 219,780.5C 219.671,781.252 220.504,781.586 221.5,781.5 Z"/></g>
<g><path style="opacity:1" fill="#f9e9aa" d="M 784.5,787.5 C 783.514,789.408 781.848,790.408 779.5,790.5C 780.768,788.953 782.435,787.953 784.5,787.5 Z"/></g>
<g><path style="opacity:1" fill="#faeab2" d="M 768.5,795.5 C 768.027,796.906 767.027,797.573 765.5,797.5C 765.973,796.094 766.973,795.427 768.5,795.5 Z"/></g>
<g><path style="opacity:1" fill="#f7e395" d="M 736.5,808.5 C 734.095,809.768 731.428,810.435 728.5,810.5C 730.78,808.777 733.447,808.111 736.5,808.5 Z"/></g>
<g><path style="opacity:1" fill="#f9e699" d="M 716.5,813.5 C 712.46,815.117 708.127,815.95 703.5,816C 637.834,816.5 572.168,816.667 506.5,816.5C 443.664,816.832 380.998,816.499 318.5,815.5C 446.5,815.667 574.5,815.5 702.5,815C 707.184,814.565 711.851,814.065 716.5,813.5 Z"/></g>
</svg>
